<?xml version="1.0" encoding="iso-8859-1"?>
<!-- Generator: Adobe Illustrator 19.0.0, SVG Export Plug-In . SVG Version: 6.00 Build 0)  -->
<svg version="1.1" id="Capa_1" xmlns="http://www.w3.org/2000/svg" xmlns:xlink="http://www.w3.org/1999/xlink" x="0px" y="0px"
	 viewBox="0 0 512 512" style="enable-background:new 0 0 512 512;" xml:space="preserve">
<path style="fill:#45CDD9;" d="M504,132h-96c-4.418,0-8,3.582-8,8v160c0,4.418,3.582,8,8,8h96c4.418,0,8-3.582,8-8V140
	C512,135.582,508.418,132,504,132z"/>
<path style="fill:#38B1C9;" d="M416,300V140c0-4.418,3.582-8,8-8h-16c-4.418,0-8,3.582-8,8v160c0,4.418,3.582,8,8,8h16
	C419.582,308,416,304.418,416,300z"/>
<path style="fill:#45CDD9;" d="M504,292H248c-4.418,0-8,3.582-8,8v40c0,1.341,0.337,2.66,0.979,3.836l0.183,0.342
	C247.62,356.335,272.39,396,320,396h82.059c2.071,6.838,15.575,49.873,17.659,55.944C421.892,458.278,424,468,434.786,468H504
	c4.418,0,8-3.582,8-8V300C512,295.582,508.418,292,504,292z"/>
<g>
	<path style="fill:#38B1C9;" d="M427.718,451.944c-2.084-6.071-15.588-49.106-17.659-55.944h-8
		c2.071,6.838,15.575,49.873,17.659,55.944C421.892,458.278,424,468,434.786,468h8C432,468,429.892,458.278,427.718,451.944z"/>
	<path style="fill:#38B1C9;" d="M257.162,344.178l-0.183-0.342C256.337,342.66,256,341.341,256,340v-40c0-4.418,3.582-8,8-8h-16
		c-4.418,0-8,3.582-8,8v40c0,1.341,0.337,2.66,0.979,3.836l0.183,0.342C247.62,356.335,272.39,396,320,396h16
		C288.39,396,263.62,356.335,257.162,344.178z"/>
</g>
<path style="fill:#6E50B5;" d="M464,188h-32c-4.418,0-8-3.582-8-8s3.582-8,8-8h32c4.418,0,8,3.582,8,8S468.418,188,464,188z"/>
<path style="fill:#B874C4;" d="M464,172c-13.233,0-24,10.767-24,24s10.767,24,24,24s24-10.767,24-24S477.233,172,464,172z"/>
<path style="fill:#9D5CAD;" d="M464,180c-8.822,0-16,7.178-16,16s7.178,16,16,16s16-7.178,16-16S472.822,180,464,180z"/>
<path style="fill:#FFEABD;" d="M256,140c-26.468,0-48,21.532-48,48s21.532,48,48,48s48-21.532,48-48S282.468,140,256,140z"/>
<path style="fill:#FFDD95;" d="M272,228c-26.468,0-48-21.532-48-48c0-15.561,7.448-29.409,18.959-38.185
	C222.811,147.512,208,166.052,208,188c0,26.468,21.532,48,48,48c10.907,0,20.971-3.663,29.041-9.815
	C280.891,227.358,276.52,228,272,228z"/>
<path style="fill:#E9E9EC;" d="M336,244h-95.373c-9.983-8.086-49.626-40.187-53.312-43.021c-5.08-3.91-11.383-5.609-17.737-4.777
	c-6.261,0.816-11.838,3.985-15.738,8.934l-84.521,95.817c-0.119,0.134-0.232,0.272-0.342,0.414
	c-6.686,8.691-11.062,31.93-3.634,43.07c11.706,17.559,39.813,55.57,54.697,75.563H24c-13.233,0-24,10.767-24,24s10.767,24,24,24
	h144c8.379,0,16.011-4.255,20.416-11.383c4.404-7.128,4.797-15.857,1.05-23.351l-49.415-98.832l53.427-63.744l23.487,16.017
	C221.218,290.123,226.539,292,232,292h104c13.233,0,24-10.767,24-24S349.233,244,336,244z"/>
<path style="fill:#FFEABD;" d="M336,244h-25v48h25c13.233,0,24-10.767,24-24S349.233,244,336,244z"/>
<path style="fill:#676779;" d="M69.319,300.953c-0.119,0.134-0.232,0.272-0.342,0.414c-6.686,8.691-11.062,31.93-3.634,43.07
	c11.706,17.559,39.813,55.57,54.697,75.563H24c-13.233,0-24,10.767-24,24s10.767,24,24,24h144c8.379,0,16.011-4.255,20.416-11.383
	c4.404-7.128,4.797-15.857,1.05-23.351l-49.415-98.832l6.223-7.425L91.066,276.3L69.319,300.953z"/>
<path style="fill:#525266;" d="M188.416,440.622c-4.405,7.128-12.037,11.383-20.416,11.383H24c-10.43,0-19.323-6.69-22.625-16.002
	C0.488,438.505,0,441.196,0,444c0,13.233,10.767,24,24,24h144c8.379,0,16.011-4.255,20.416-11.383
	c3.878-6.276,4.642-13.793,2.212-20.616C190.061,437.593,189.33,439.143,188.416,440.622z"/>
<path style="fill:#D4D4D9;" d="M232,276.004c-5.461,0-10.782-1.877-15.035-5.293l-23.487-16.017v15.996l23.487,16.017
	C221.218,290.123,226.539,292,232,292h79v-15.996H232z"/>
<path style="fill:#FFDD95;" d="M358.625,260.002c-3.302,9.312-12.195,16.002-22.625,16.002h-25V292h25c13.233,0,24-10.767,24-24
	C360,265.196,359.512,262.505,358.625,260.002z"/>
<path style="fill:#525266;" d="M69.319,300.953c-0.119,0.134-0.232,0.272-0.342,0.414c-6.686,8.691-11.062,31.93-3.634,43.07
	c11.706,17.559,39.813,55.57,54.697,75.563h16c-14.884-19.992-42.991-58.004-54.697-75.563c-7.428-11.141-3.052-34.379,3.634-43.07
	c0.109-0.142,0.223-0.28,0.342-0.414l14.585-16.535l-8.839-8.118L69.319,300.953z"/>
<path style="fill:#D4D4D9;" d="M180.699,197.374c-3.521-1.252-7.311-1.67-11.121-1.171c-6.261,0.816-11.838,3.985-15.738,8.934
	L91.066,276.3l8.839,8.118l69.935-79.283C172.691,201.519,176.444,198.865,180.699,197.374z"/>
<g>
	<path style="fill:#DCB9E2;" d="M240,92c-13.233,0-24-10.767-24-24s10.767-24,24-24s24,10.767,24,24S253.233,92,240,92z M240,60
		c-4.411,0-8,3.589-8,8s3.589,8,8,8s8-3.589,8-8S244.411,60,240,60z"/>
	<path style="fill:#DCB9E2;" d="M360,204c-13.233,0-24-10.767-24-24s10.767-24,24-24s24,10.767,24,24S373.233,204,360,204z M360,172
		c-4.411,0-8,3.589-8,8s3.589,8,8,8s8-3.589,8-8S364.411,172,360,172z"/>
	<path style="fill:#DCB9E2;" d="M112,172c-13.233,0-24-10.767-24-24s10.767-24,24-24s24,10.767,24,24S125.233,172,112,172z M112,140
		c-4.411,0-8,3.589-8,8s3.589,8,8,8s8-3.589,8-8S116.411,140,112,140z"/>
</g>
<g>
	<path style="fill:#A2E6EC;" d="M328,100h-8v-8c0-4.418-3.582-8-8-8s-8,3.582-8,8v8h-8c-4.418,0-8,3.582-8,8s3.582,8,8,8h8v8
		c0,4.418,3.582,8,8,8s8-3.582,8-8v-8h8c4.418,0,8-3.582,8-8S332.418,100,328,100z"/>
	<path style="fill:#A2E6EC;" d="M200,124h-8v-8c0-4.418-3.582-8-8-8s-8,3.582-8,8v8h-8c-4.418,0-8,3.582-8,8s3.582,8,8,8h8v8
		c0,4.418,3.582,8,8,8s8-3.582,8-8v-8h8c4.418,0,8-3.582,8-8S204.418,124,200,124z"/>
</g>
<path style="fill:#525266;" d="M333.887,150.583c-2.134-2.319-5.428-3.168-8.417-2.173c-9.886,3.297-23.669-2.209-37-7.53
	c-14.055-5.611-28.585-11.416-42.039-8.725c-24.67,4.934-33.818,20.527-37.148,32.74c-3.457,12.676-1.224,24.189-1.127,24.674
	c0.595,2.971,2.816,5.352,5.74,6.148c0.872,0.238,20.069,5.396,43.367,5.396c1.99,0,4.015-0.038,6.057-0.12
	c36.011-1.44,60.92-15.909,72.034-41.842C336.594,156.256,336.021,152.901,333.887,150.583z"/>
<g>
</g>
<g>
</g>
<g>
</g>
<g>
</g>
<g>
</g>
<g>
</g>
<g>
</g>
<g>
</g>
<g>
</g>
<g>
</g>
<g>
</g>
<g>
</g>
<g>
</g>
<g>
</g>
<g>
</g>
</svg>
