<svg id="Layer_1" enable-background="new 0 0 256 256" height="512" viewBox="0 0 256 256" width="512" xmlns="http://www.w3.org/2000/svg"><path d="m194.63 101.382c-.138 0-.271.018-.408.02v-6.031c0-35.25-28.875-63.825-64.494-63.825-35.619 0-64.494 28.575-64.494 63.825v6.031c-.137-.003-.27-.02-.408-.02-10.867 0-19.676 8.718-19.676 19.472s8.809 19.472 19.676 19.472c.714 0 1.417-.042 2.111-.116 6.655 28.236 32.231 49.276 62.79 49.276 30.559 0 56.135-21.04 62.79-49.276.694.073 1.397.116 2.111.116 10.867 0 19.676-8.718 19.676-19.472.002-10.755-8.808-19.472-19.674-19.472z" fill="#f9cfcf"/><path d="m129.729 191.486c-30.49 0-56.7-20.133-64.327-49.169-.193.005-.385.008-.574.008-11.952 0-21.677-9.632-21.677-21.472 0-11.31 8.872-20.604 20.084-21.415v-4.067c0-36.296 29.829-65.825 66.494-65.825 36.664 0 66.493 29.529 66.493 65.825v4.067c11.212.811 20.084 10.105 20.084 21.415 0 12.029-10.056 21.811-22.251 21.464-7.627 29.037-33.837 49.169-64.326 49.169zm-62.79-53.276c.917 0 1.73.63 1.944 1.541 6.625 28.106 31.645 47.735 60.845 47.735 29.199 0 54.219-19.629 60.844-47.735.23-.981 1.152-1.644 2.156-1.53.668.07 1.29.104 1.901.104 9.746 0 17.676-7.838 17.676-17.472 0-9.632-7.927-17.469-17.671-17.472-.182.012-.275.018-.37.02-.553.008-1.057-.194-1.442-.57-.384-.376-.601-.891-.601-1.429v-6.03c0-34.09-28.034-61.825-62.493-61.825s-62.494 27.734-62.494 61.825v6.03c0 .538-.217 1.053-.601 1.429-.386.376-.898.578-1.442.57-.095-.002-.189-.008-.284-.015-.003 0-.007 0-.01 0-9.823 0-17.747 7.835-17.747 17.467 0 9.634 7.93 17.472 17.677 17.472.604 0 1.243-.035 1.9-.104.072-.008.142-.011.212-.011z" fill="#3762cc"/><path d="m141.99 161.259c-1.104 0-2-.896-2-2 0-1.591-.688-3.126-1.992-4.438-1.145-1.153-2.705-2.052-4.514-2.602-1.087-.33-2.318-.491-3.765-.491s-2.678.161-3.765.491c-1.808.55-3.368 1.449-4.513 2.601-1.304 1.313-1.993 2.847-1.993 4.438 0 1.104-.896 2-2 2s-2-.896-2-2c0-2.633 1.121-5.21 3.155-7.257 1.608-1.62 3.749-2.868 6.188-3.609 1.47-.446 3.081-.664 4.928-.664s3.458.217 4.927.664c2.44.741 4.58 1.989 6.189 3.61 2.034 2.047 3.154 4.625 3.154 7.257.001 1.105-.894 2-1.999 2z" fill="#3762cc"/><path d="m44.045 78.788c-2.918-7.815-3.126-16.383-.589-24.33l.218-.683c4.15-13 15.084-22.685 28.49-25.234 6.328-1.204 12.859-.744 18.956 1.334l.712.243c.041.369.103.74.194 1.109 2.927 11.966 8.301 22.995 15.603 32.472-6.337 17.656-14.091 27.721-20.002 33.294v.001l-7.758 7.875-15.043-3.488c-4.11 0-7.924 1.251-11.08 3.384z" fill="#4671c6"/><path d="m206.159 52.026c-5.06-15.701-16.618-28.177-31.395-34.328l.001-.008c-51.948-25.571-80.359 5.28-80.359 5.28-2.138 2.058-3.13 5.187-2.379 8.258 5.963 24.377 22.031 44.901 44.02 56.228l.031.016c4.747 2.445 9.703 4.442 14.807 5.965 1.269.379 2.293-1.091 1.524-2.188l-10.681-15.242c-.931-1.329.704-2.95 1.974-1.956 11.811 9.249 34.758 24.57 57.971 25.339l3.78-10.352c4.344-11.899 4.593-24.95.706-37.012z" fill="#4671c6"/><g fill="#3762cc"><path d="m79.87 106.87c-.15 0-.302-.017-.452-.052l-14.813-3.435c-3.493.042-6.854 1.091-9.737 3.04-.508.343-1.145.436-1.729.248-.584-.187-1.05-.631-1.265-1.205l-9.702-25.977c-3.061-8.197-3.28-17.302-.62-25.638l.22-.685c4.376-13.711 15.88-23.9 30.021-26.589 6.656-1.267 13.563-.78 19.976 1.406l.713.244c.733.25 1.256.902 1.341 1.672.034.3.084.588.149.857 2.84 11.607 7.969 22.282 15.244 31.724.416.54.528 1.255.299 1.896-6.61 18.406-14.804 28.688-20.515 34.072l-7.705 7.825c-.38.386-.896.597-1.425.597zm-15.043-7.489c.152 0 .304.018.452.052l13.952 3.235 6.972-7.078c5.341-5.038 12.906-14.531 19.174-31.55-7.264-9.668-12.407-20.542-15.293-32.339-.006-.023-.012-.047-.018-.071-5.642-1.846-11.692-2.236-17.527-1.125-12.698 2.415-23.028 11.564-26.959 23.878l-.22.685c-2.388 7.484-2.19 15.661.559 23.021l8.865 23.736c3.087-1.605 6.515-2.444 10.043-2.444z"/><path d="m201.672 101.389c-.021 0-.044 0-.066-.001-21.913-.726-43.499-14.047-56.051-23.404l8.49 12.115c.853 1.216.842 2.781-.026 3.985-.856 1.186-2.309 1.683-3.707 1.268-5.209-1.555-10.307-3.609-15.15-6.104-22.553-11.616-38.972-32.585-45.078-57.545-.894-3.651.216-7.528 2.894-10.134.684-.728 7.968-8.232 21.497-12.726 12.76-4.238 33.731-6.455 61.173 7.053.016.008.031.015.046.023 15.386 6.459 27.178 19.387 32.369 35.493 4.008 12.437 3.748 26.042-.731 38.311l-3.78 10.352c-.29.791-1.042 1.314-1.88 1.314zm-58.825-29.651c.727 0 1.457.244 2.087.738 11.229 8.792 33.152 23.522 55.363 24.847l3.276-8.972c4.176-11.436 4.418-24.118.683-35.712-4.85-15.046-15.88-27.109-30.261-33.095-.093-.039-.182-.084-.267-.135-20.615-10.112-40.595-12.479-57.782-6.841-13.023 4.271-20.003 11.684-20.072 11.758-.025.028-.055.057-.082.083-1.685 1.622-2.383 4.052-1.823 6.342 5.832 23.835 21.502 43.854 42.993 54.925 4.136 2.13 8.438 3.915 12.833 5.328l-9.706-13.851c-.987-1.409-.8-3.29.447-4.472.661-.626 1.484-.943 2.311-.943z"/><path d="m97.817 134.706c-4.079 0-7.397-3.313-7.397-7.385v-12.31c0-4.073 3.318-7.386 7.397-7.386 4.078 0 7.396 3.313 7.396 7.386v12.31c0 4.072-3.318 7.385-7.396 7.385z"/><path d="m161.609 134.706c-4.079 0-7.397-3.313-7.397-7.385v-12.31c0-4.073 3.318-7.386 7.397-7.386 4.078 0 7.396 3.313 7.396 7.386v12.31c0 4.072-3.318 7.385-7.396 7.385z"/><path d="m173.506 112.008c-.133 0-.267-.013-.401-.041l-23.352-4.764c-1.083-.221-1.781-1.277-1.561-2.359s1.278-1.784 2.359-1.56l23.352 4.764c1.083.221 1.781 1.277 1.561 2.359-.193.947-1.027 1.601-1.958 1.601z"/><path d="m85.95 112.008c-.931 0-1.765-.653-1.958-1.601-.221-1.083.478-2.139 1.561-2.359l23.353-4.764c1.087-.224 2.139.479 2.359 1.56.221 1.083-.478 2.139-1.561 2.359l-23.353 4.764c-.134.028-.269.041-.401.041z"/></g><path d="m169.401 192.369h-8.752c.116-1.111.179-2.239.179-3.382v-7.411c-7.908 4.323-16.836 7.03-26.333 7.718-.26.02-.52.042-.781.059-.405.025-.81.046-1.216.063-.919.041-1.84.07-2.769.07s-1.851-.029-2.77-.07c-.407-.017-.812-.039-1.217-.063-.26-.017-.519-.039-.778-.059-9.498-.688-18.426-3.396-26.335-7.718v7.411c0 1.143.063 2.271.179 3.382h-8.752c-19.172 0-34.714 15.542-34.714 34.714v20.917h148.774v-20.917c-.001-19.172-15.543-34.714-34.715-34.714z" fill="#f9cfcf"/><path d="m86.721 214.793c-1.249-3.303-4.939-4.968-8.241-3.719-.496.187-.95.436-1.367.724-1.634-2.347-4.704-3.385-7.501-2.327-3.303 1.249-4.968 4.939-3.719 8.241.646 1.709 1.949 2.974 3.511 3.63-.738 1.525-.877 3.335-.231 5.044 1.249 3.303 4.939 4.968 8.242 3.719 2.797-1.058 4.412-3.867 4.084-6.708.504-.06 1.008-.175 1.504-.362 3.302-1.25 4.967-4.94 3.718-8.242z" fill="#f9a7a7"/><path d="m105.179 224.372c-.133-1.819-1.105-3.373-2.505-4.322.556-1.087.837-2.332.741-3.639-.279-3.803-3.589-6.66-7.392-6.381s-6.66 3.589-6.381 7.392c.04.551.151 1.078.311 1.583-2.024 1.004-3.347 3.158-3.171 5.551.232 3.155 2.977 5.525 6.132 5.294.976-.072 1.876-.385 2.648-.875 1.126 1.051 2.666 1.651 4.323 1.53 3.155-.233 5.525-2.978 5.294-6.133z" fill="#f9a7a7"/><path d="m106.666 202.976c-.389.106-.734.284-1.05.499-.847-1.12-2.315-1.677-3.754-1.285-1.888.514-3.002 2.461-2.488 4.35.514 1.888 2.461 3.003 4.35 2.489.389-.106.734-.284 1.05-.499.847 1.12 2.315 1.677 3.753 1.285 1.888-.514 3.002-2.461 2.488-4.35s-2.461-3.003-4.349-2.489z" fill="#f9a7a7"/><path d="m73.269 202.865c0 3.358 2.723 6.081 6.081 6.081 1.387 0 2.661-.469 3.684-1.251 1.384 1.659 3.466 2.716 5.796 2.716 4.168 0 7.547-3.379 7.547-7.547 0-3.449-2.316-6.351-5.475-7.252 0-.015.002-.03.002-.046 0-1.174-.339-2.267-.915-3.197-6.256.012-12.119 1.686-17.184 4.593-.003.063-.019.123-.019.187 0 1.144.44 2.176 1.143 2.97-.419.826-.66 1.757-.66 2.746z" fill="#f9a7a7"/><path d="m204.115 250h-148.774c-1.104 0-2-.896-2-2v-20.917c0-20.244 16.47-36.714 36.714-36.714h6.603c-.019-.463-.028-.925-.028-1.382v-7.411c0-.706.372-1.36.979-1.72.607-.361 1.36-.374 1.979-.035 7.879 4.306 16.465 6.822 25.52 7.479l.765.058c.383.023.775.044 1.17.061 1.79.08 3.588.08 5.364 0 .402-.017.794-.038 1.188-.062l.744-.057c9.067-.657 17.652-3.173 25.531-7.479.62-.338 1.372-.325 1.979.035s.979 1.014.979 1.72v7.411c0 .456-.01.917-.029 1.382h6.603c20.244 0 36.714 16.47 36.714 36.714v20.917c-.001 1.104-.896 2-2.001 2zm-146.774-4h144.774v-18.917c0-18.039-14.676-32.714-32.714-32.714h-8.752c-.566 0-1.106-.24-1.485-.661s-.563-.982-.504-1.545c.111-1.076.168-2.144.168-3.176v-4.133c-7.56 3.656-15.681 5.818-24.188 6.435l-.795.061c-.428.026-.845.048-1.264.065-1.884.086-3.817.086-5.713 0-.412-.018-.83-.04-1.247-.064l-.812-.062c-8.501-.616-16.621-2.778-24.181-6.434v4.132c0 1.041.057 2.108.168 3.174.059.563-.124 1.125-.503 1.547-.38.421-.92.661-1.486.661h-8.753c-18.038 0-32.714 14.676-32.714 32.714v18.917z" fill="#3762cc"/><path d="m67.062 229.372c-.294-.275-.627-.476-.975-.632.509-1.309.212-2.851-.876-3.87-1.428-1.338-3.671-1.264-5.009.164s-1.264 3.671.164 5.009c.294.275.627.476.975.632-.509 1.309-.212 2.851.875 3.87 1.428 1.338 3.671 1.264 5.009-.164 1.339-1.429 1.266-3.671-.163-5.009z" fill="#f9a7a7"/><ellipse cx="176.625" cy="217.875" fill="#f9a7a7" rx="4.625" ry="10.625" transform="matrix(.707 -.707 .707 .707 -102.329 188.707)"/><ellipse cx="190.625" cy="217.875" fill="#f9a7a7" rx="4.625" ry="10.625" transform="matrix(.822 -.57 .57 .822 -90.149 147.354)"/><ellipse cx="192.273" cy="235.502" fill="#f9a7a7" rx="4.625" ry="7.293" transform="matrix(.822 -.57 .57 .822 -99.895 151.431)"/></svg>