<?xml version="1.0" encoding="iso-8859-1"?>
<!-- Generator: Adobe Illustrator 19.0.0, SVG Export Plug-In . SVG Version: 6.00 Build 0)  -->
<svg version="1.1" id="Capa_1" xmlns="http://www.w3.org/2000/svg" xmlns:xlink="http://www.w3.org/1999/xlink" x="0px" y="0px"
	 viewBox="0 0 512 512" style="enable-background:new 0 0 512 512;" xml:space="preserve">
<path style="fill:#E6E6E6;" d="M22,90l5.516,63.131C35.496,159.656,61.393,179,88,179c32,0,57-28,88-28s51,28,80,28s54-28,80-28
	s55,28,88,28c27.349,0,52.619-19.218,60.478-25.805L490,90H22z"/>
<rect x="10" y="10" style="fill:#AAAAA0;" width="492" height="80"/>
<path style="fill:#FAC800;" d="M424,179c-33,0-62-28-88-28s-51,28-80,28s-49-28-80-28s-56,28-88,28
	c-26.607,0-52.504-19.344-60.484-25.869L58,502h396l30.478-348.805C476.619,159.782,451.349,179,424,179z"/>
<rect x="126" y="232" style="fill:#E6E6E6;" width="260" height="160"/>
<path d="M502,0H10C4.477,0,0,4.478,0,10v80c0,5.522,4.477,10,10,10h2.836l35.202,402.87C48.489,508.036,52.814,512,58,512h396
	c5.186,0,9.511-3.964,9.962-9.13L499.164,100H502c5.523,0,10-4.478,10-10V10C512,4.478,507.523,0,502,0z M20,20h472v60H20V20z
	 M444.836,492H67.165l-1.748-20H405c5.523,0,10-4.478,10-10s-4.477-10-10-10H63.669L39.343,173.6
	c0.128,0.077,0.264,0.153,0.393,0.229C54.105,182.341,71.082,189,88,189c18.469,0,34.067-7.73,49.152-15.207
	C150.427,167.214,162.965,161,176,161c13.148,0,24.485,6.351,36.488,13.074c1.637,0.917,3.282,1.838,4.939,2.748
	C229.025,183.19,241.24,189,256,189c17.397,0,33.075-8.368,46.908-15.751C314.709,166.95,325.856,161,336,161
	c9.949,0,21.846,5.715,34.442,11.766C386.285,180.375,404.241,189,424,189c17.267,0,33.982-6.395,48.636-15.163L444.836,492z
	 M474.867,148.097C460.715,159.268,442.448,169,424,169c-15.205,0-30.3-7.251-44.898-14.263C364.395,147.673,350.503,141,336,141
	c-15.147,0-29.058,7.425-42.51,14.605C280.584,162.493,268.394,169,256,169c-11.648,0-22.378-6.011-33.738-12.374
	C209.187,149.302,194.369,141,176,141c-17.13,0-32.719,7.434-47.729,14.873C115.677,162.114,102.405,169,88,169
	c-14.459,0-42-10-50.898-21.047L32.912,100h446.176C479.088,100,474.887,148.082,474.867,148.097z"/>
<path d="M386,222H126c-5.523,0-10,4.478-10,10v160c0,5.522,4.477,10,10,10h260c5.523,0,10-4.478,10-10V232
	C396,226.478,391.523,222,386,222z M376,382H136V242h240V382z"/>
<path d="M206,282h100c5.523,0,10-4.478,10-10s-4.477-10-10-10H206c-5.523,0-10,4.478-10,10S200.477,282,206,282z"/>
<path d="M346,342c-5.51,0-10,4.479-10,10c0,5.51,4.49,10,10,10s10-4.49,10-10C356,346.479,351.51,342,346,342z"/>
<path d="M166,362h140c5.51,0,10-4.49,10-10c0-5.521-4.49-10-10-10H166c-5.51,0-10,4.479-10,10C156,357.51,160.49,362,166,362z"/>
<path d="M302,312c0,5.522,4.477,10,10,10h34c5.523,0,10-4.478,10-10s-4.477-10-10-10h-34C306.477,302,302,306.478,302,312z"/>
<path d="M242,302c-5.523,0-10,4.478-10,10s4.477,10,10,10h30c5.523,0,10-4.478,10-10s-4.477-10-10-10H242z"/>
<path d="M166,322h36c5.523,0,10-4.478,10-10s-4.477-10-10-10h-36c-5.523,0-10,4.478-10,10S160.477,322,166,322z"/>
<g>
</g>
<g>
</g>
<g>
</g>
<g>
</g>
<g>
</g>
<g>
</g>
<g>
</g>
<g>
</g>
<g>
</g>
<g>
</g>
<g>
</g>
<g>
</g>
<g>
</g>
<g>
</g>
<g>
</g>
</svg>
